<svg width="128" height="128" viewBox="0 0 128 128" fill="none" xmlns="http://www.w3.org/2000/svg">
    <path stroke-width="4"
        stroke="#71ad93" fill-rule="evenodd" clip-rule="evenodd"
        d="M60.612 17.0425C62.4121 15.6525 64.9235 15.6525 66.7236 17.0425L111.336 51.4897L110.113 53.0727L65.5013 18.6255C64.4212 17.7915 62.9144 17.7915 61.8343 18.6255L17.2223 53.0727L16 51.4897L60.612 17.0425ZM26 110V51H24V111V112H25H103H104V111V51H102V110H75V83V82H74H54H53V83V110H26ZM73 84V110H55V84H73ZM31.3112 16.1361C30.2066 16.1361 29.3112 17.0316 29.3112 18.1361V37.3884H31.3112V18.1361L40.0329 18.1361V29.0492H42.0329V18.1361C42.0329 17.0316 41.1375 16.1361 40.0329 16.1361H31.3112ZM53.0869 55.0867C53.0869 49.0595 57.9729 44.1736 64 44.1736C70.0271 44.1736 74.9131 49.0595 74.9131 55.0867C74.9131 61.1138 70.0271 65.9997 64 65.9997C57.9729 65.9997 53.0869 61.1138 53.0869 55.0867ZM64 42.1736C56.8683 42.1736 51.0869 47.955 51.0869 55.0867C51.0869 62.2184 56.8683 67.9997 64 67.9997C71.1317 67.9997 76.9131 62.2184 76.9131 55.0867C76.9131 47.955 71.1317 42.1736 64 42.1736Z"
        fill="#71ad93" />
</svg>