<svg width="128" height="128" viewBox="0 0 128 128" fill="none" xmlns="http://www.w3.org/2000/svg">
    <path fill-rule="evenodd" clip-rule="evenodd"
        stroke-width="4"
        stroke="#3ead92"
        d="M29 8C26.2386 8 24 10.2386 24 13V115C24 117.761 26.2386 120 29 120H99C101.761 120 104 117.761 104 115V13C104 10.2386 101.761 8 99 8H29ZM26 13C26 11.3431 27.3431 10 29 10H99C100.657 10 102 11.3431 102 13V115C102 116.657 100.657 118 99 118H29C27.3431 118 26 116.657 26 115V13ZM82 26H36V24H82V26ZM92 37H36V35H92V37ZM36 48H82V46H36V48ZM92 59H36V57H92V59ZM36 70H64V68H36V70ZM82 81H36V79H82V81ZM36 90V92H92V90H36ZM64 103H36V101H64V103Z"
        fill="#3ead92" />
</svg>