<svg width="128" height="128" viewBox="0 0 128 128" fill="none" xmlns="http://www.w3.org/2000/svg">
    <path stroke-width="4"
        stroke="#555555" fill-rule="evenodd" clip-rule="evenodd"
        d="M28 77.0001H18.0107C18.2546 65.5589 22.6759 55.1458 29.8104 47.2248L36.2929 53.7072L37.7071 52.293L31.1814 45.7674C39.3108 37.4912 50.5463 32.2763 63 32.0107V41.9999L65 41.9999V32.0107C89.6109 32.5356 109.465 52.3892 109.989 77.0001H100V79.0001H109.989C109.869 84.6604 108.726 90.0672 106.739 95.0446H21.2609C19.274 90.0671 18.1313 84.6604 18.0107 79.0001H28V77.0001ZM64 30C37.4903 30 16 51.4903 16 78C16 84.5275 17.3035 90.7532 19.6654 96.4288L19.9217 97.0446H20.5887H107.411H108.078L108.335 96.4288C110.696 90.7532 112 84.5275 112 78C112 51.4903 90.5097 30 64 30ZM92.2169 53.5662C93.5959 51.72 91.2738 49.39 89.423 50.763L59.3813 73.0486C55.7388 75.7507 55.3194 81.0465 58.491 84.2883C61.7019 87.5702 67.084 87.212 69.8316 83.5337L92.2169 53.5662ZM90.6146 52.3693L68.2293 82.3368C66.2163 85.0317 62.2731 85.2941 59.9206 82.8896C57.5969 80.5145 57.9042 76.6346 60.5729 74.6549L90.6146 52.3693Z"
        fill="#555555" />
</svg>